<svg xmlns="http://www.w3.org/2000/svg" version="1.1" xmlns:xlink="http://www.w3.org/1999/xlink" xmlns:svgjs="http://svgjs.dev/svgjs" width="1500" height="1500" viewBox="0 0 1500 1500"><rect width="1500" height="1500" fill="#ffffff"></rect><g transform="matrix(0.6666666666666666,0,0,0.6666666666666666,249.39393939393938,644.8308592215166)"><svg viewBox="0 0 396 83" data-background-color="#256e4b" preserveAspectRatio="xMidYMid meet" height="314" width="1500" xmlns="http://www.w3.org/2000/svg" xmlns:xlink="http://www.w3.org/1999/xlink"><g id="tight-bounds" transform="matrix(1,0,0,1,0.2400000000000091,0.19922938509935761)"><svg viewBox="0 0 395.52 82.60154122980128" height="82.60154122980128" width="395.52"><g><svg viewBox="0 0 484.0816263510981 101.09700752839171" height="82.60154122980128" width="395.52"><g><svg viewBox="0 0 484.0816263510981 101.09700752839171" height="101.09700752839171" width="484.0816263510981"><g id="textblocktransform"><svg viewBox="0 0 484.0816263510981 101.09700752839171" height="101.09700752839171" width="484.0816263510981" id="textblock"><g><svg viewBox="0 0 484.0816263510981 70.661296" height="70.661296" width="484.0816263510981"><g><svg><g></g><g></g></svg></g><g><svg><g><svg></svg></g><g></g></svg></g><g id="text-0"><svg viewBox="0 0 484.0816263510981 70.661296" height="70.661296" width="484.0816263510981"><g transform="matrix(1,0,0,1,0,8.295265120748027)"><svg width="395.52" viewBox="3.95 -32.9 310.12 42.4" height="54.07076575850394" data-palette-color="#222222"><g class="wordmark-text-0" data-fill-palette-color="primary"><path d="M21.75-7.9L21.75-7.9Q21.4-7.65 20.83-7.45 20.25-7.25 19.55-7.25L19.55-7.25Q18.75-7.25 18.13-7.5 17.5-7.75 17.25-8.3L17.25-8.3Q14.6-13.9 12.63-18.55 10.65-23.2 9.45-26.25L9.45-26.25 9.25-26.25Q9.1-22.5 8.93-19.25 8.75-16 8.55-12.98 8.35-9.95 8.18-6.78 8-3.6 7.75 0L7.75 0Q7.45 0.1 6.98 0.2 6.5 0.3 5.95 0.3L5.95 0.3Q4.85 0.3 4.4-0.18 3.95-0.65 3.95-1.45L3.95-1.45Q3.95-2.05 4.08-4.23 4.2-6.4 4.38-9.55 4.55-12.7 4.8-16.28 5.05-19.85 5.33-23.33 5.6-26.8 5.85-29.6L5.85-29.6Q6.25-29.95 7-30.25 7.75-30.55 8.7-30.55L8.7-30.55Q9.85-30.55 10.65-30.1 11.45-29.65 11.9-28.7L11.9-28.7Q13.2-26.15 14.5-23.15 15.8-20.15 17.05-17.15 18.3-14.15 19.45-11.5L19.45-11.5 19.65-11.5Q21.85-16.8 24.03-21.7 26.2-26.6 27.7-30.05L27.7-30.05Q28.15-30.3 28.85-30.43 29.55-30.55 30.15-30.55L30.15-30.55Q31.3-30.55 31.98-30.18 32.65-29.8 32.85-28.95L32.85-28.95Q33.05-28.1 33.3-26.05 33.55-24 33.8-21.23 34.05-18.45 34.27-15.4 34.5-12.35 34.7-9.4 34.9-6.45 35.08-4.08 35.25-1.7 35.3-0.3L35.3-0.3Q34.85 0 34.35 0.15 33.85 0.3 33.2 0.3L33.2 0.3Q32.45 0.3 31.88-0.08 31.3-0.45 31.2-1.45L31.2-1.45Q30.9-6.3 30.63-11.03 30.35-15.75 30.15-19.7 29.95-23.65 29.8-26.15L29.8-26.15 29.6-26.15Q28.5-23.4 26.6-19.07 24.7-14.75 21.75-7.9ZM64.2-11.55L64.2-11.55Q64.2-7.85 62.8-5.1 61.4-2.35 58.85-0.85 56.3 0.65 52.85 0.65L52.85 0.65Q49.4 0.65 46.82-0.85 44.25-2.35 42.85-5.1 41.45-7.85 41.45-11.55L41.45-11.55Q41.45-15.3 42.87-18.03 44.3-20.75 46.87-22.25 49.45-23.75 52.85-23.75L52.85-23.75Q56.25-23.75 58.8-22.25 61.35-20.75 62.77-18.03 64.2-15.3 64.2-11.55ZM52.85-20.45L52.85-20.45Q49.5-20.45 47.52-18.07 45.55-15.7 45.55-11.55L45.55-11.55Q45.55-7.35 47.47-5 49.4-2.65 52.85-2.65L52.85-2.65Q56.25-2.65 58.17-5.03 60.1-7.4 60.1-11.55L60.1-11.55Q60.1-15.7 58.17-18.07 56.25-20.45 52.85-20.45ZM74.4-18.8L74.4-18.8 74.4-10.9 70.4-10.9 70.4-18.5Q70.4-19.65 70.82-20.33 71.25-21 72.25-21.65L72.25-21.65Q73.55-22.5 75.8-23.13 78.05-23.75 80.8-23.75L80.8-23.75Q84.8-23.75 84.8-21.75L84.8-21.75Q84.8-21.25 84.65-20.83 84.5-20.4 84.25-20.1L84.25-20.1Q83.75-20.2 82.95-20.3 82.15-20.4 81.35-20.4L81.35-20.4Q79.05-20.4 77.3-19.93 75.55-19.45 74.4-18.8ZM70.4-1.55L70.4-13.2 74.4-12.6 74.4-0.1Q74.15 0 73.65 0.13 73.15 0.25 72.55 0.25L72.55 0.25Q71.5 0.25 70.95-0.18 70.4-0.6 70.4-1.55L70.4-1.55ZM97.74-2.6L97.74-2.6Q99.84-2.6 101.22-3.03 102.59-3.45 103.19-3.85L103.19-3.85 103.19-11.1 96.99-10.45Q94.39-10.25 93.14-9.3 91.89-8.35 91.89-6.55L91.89-6.55Q91.89-4.7 93.37-3.65 94.84-2.6 97.74-2.6ZM97.69-23.75L97.69-23.75Q102.04-23.75 104.59-21.8 107.14-19.85 107.14-15.65L107.14-15.65 107.14-3.8Q107.14-2.7 106.72-2.13 106.29-1.55 105.44-1.05L105.44-1.05Q104.24-0.4 102.24 0.15 100.24 0.7 97.74 0.7L97.74 0.7Q93.04 0.7 90.47-1.15 87.89-3 87.89-6.5L87.89-6.5Q87.89-9.75 90.07-11.48 92.24-13.2 96.09-13.55L96.09-13.55 103.19-14.25 103.19-15.65Q103.19-18.15 101.69-19.3 100.19-20.45 97.64-20.45L97.64-20.45Q95.59-20.45 93.72-19.85 91.84-19.25 90.39-18.5L90.39-18.5Q89.99-18.85 89.67-19.33 89.34-19.8 89.34-20.3L89.34-20.3Q89.34-21.6 90.79-22.3L90.79-22.3Q92.14-23 93.92-23.38 95.69-23.75 97.69-23.75ZM114.84-1.55L114.84-13.2 118.84-12.6 118.84-0.1Q118.59 0 118.09 0.13 117.59 0.25 116.99 0.25L116.99 0.25Q115.94 0.25 115.39-0.18 114.84-0.6 114.84-1.55L114.84-1.55ZM118.84-30.95L118.84-10.7 114.84-11.25 114.84-32.4Q115.09-32.5 115.62-32.63 116.14-32.75 116.69-32.75L116.69-32.75Q117.79-32.75 118.32-32.33 118.84-31.9 118.84-30.95L118.84-30.95ZM126.39-30.4L126.39-30.4Q126.39-31.45 127.14-32.18 127.89-32.9 128.99-32.9L128.99-32.9Q130.14-32.9 130.84-32.18 131.54-31.45 131.54-30.4L131.54-30.4Q131.54-29.35 130.84-28.63 130.14-27.9 128.99-27.9L128.99-27.9Q127.89-27.9 127.14-28.63 126.39-29.35 126.39-30.4ZM126.99-1.55L126.99-13.2 130.99-13.2 130.99-0.1Q130.74 0 130.24 0.13 129.74 0.25 129.14 0.25L129.14 0.25Q128.09 0.25 127.54-0.18 126.99-0.6 126.99-1.55L126.99-1.55ZM130.99-21.5L130.99-11.25 126.99-11.25 126.99-23Q127.24-23.1 127.76-23.23 128.29-23.35 128.89-23.35L128.89-23.35Q129.94-23.35 130.46-22.93 130.99-22.5 130.99-21.5L130.99-21.5ZM138.84-6.05L138.84-13.2 142.84-13.2 142.84-6.3Q142.84-4.3 143.99-3.48 145.14-2.65 147.14-2.65L147.14-2.65Q147.99-2.65 149.04-2.95 150.09-3.25 150.79-3.65L150.79-3.65Q151.09-3.35 151.34-2.9 151.59-2.45 151.59-1.85L151.59-1.85Q151.59-0.75 150.29-0.05 148.99 0.65 146.69 0.65L146.69 0.65Q143.19 0.65 141.01-0.9 138.84-2.45 138.84-6.05L138.84-6.05ZM149.99-19.3L140.89-19.3 140.89-22.6 151.04-22.6Q151.19-22.4 151.34-21.95 151.49-21.5 151.49-21L151.49-21Q151.49-20.2 151.09-19.75 150.69-19.3 149.99-19.3L149.99-19.3ZM142.84-28.35L142.84-11.7 138.84-11.7 138.84-29.8Q139.09-29.9 139.61-30.03 140.14-30.15 140.74-30.15L140.74-30.15Q141.79-30.15 142.31-29.73 142.84-29.3 142.84-28.35L142.84-28.35ZM162.08-5.15L162.08-5.15Q161.23-6.75 160.03-9.47 158.83-12.2 157.56-15.58 156.28-18.95 155.13-22.45L155.13-22.45Q155.48-22.95 156.06-23.25 156.63-23.55 157.28-23.55L157.28-23.55Q158.13-23.55 158.68-23.1 159.23-22.65 159.58-21.6L159.58-21.6Q161.08-17.4 162.73-13.25 164.38-9.1 166.38-4.65L166.38-4.65 166.58-4.65Q167.63-6.75 168.78-9.9 169.93-13.05 170.98-16.55 172.03-20.05 172.73-23.15L172.73-23.15Q173.08-23.3 173.51-23.43 173.93-23.55 174.43-23.55L174.43-23.55Q175.28-23.55 175.83-23.13 176.38-22.7 176.38-21.85L176.38-21.85Q176.38-21.05 175.93-19.18 175.48-17.3 174.71-14.83 173.93-12.35 172.91-9.58 171.88-6.8 170.71-4.13 169.53-1.45 168.33 0.7L168.33 0.7Q166.03 4.95 164.13 7.23 162.23 9.5 160.63 9.5L160.63 9.5Q159.48 9.5 158.86 8.9 158.23 8.3 158.08 7.5L158.08 7.5Q159.18 6.55 160.56 4.98 161.93 3.4 163.21 1.58 164.48-0.25 165.28-1.9L165.28-1.9Q164.43-2.15 163.71-2.8 162.98-3.45 162.08-5.15ZM199.83-7.9L199.83-7.9Q199.48-7.65 198.91-7.45 198.33-7.25 197.63-7.25L197.63-7.25Q196.83-7.25 196.21-7.5 195.58-7.75 195.33-8.3L195.33-8.3Q192.68-13.9 190.71-18.55 188.73-23.2 187.53-26.25L187.53-26.25 187.33-26.25Q187.18-22.5 187.01-19.25 186.83-16 186.63-12.98 186.43-9.95 186.26-6.78 186.08-3.6 185.83 0L185.83 0Q185.53 0.1 185.06 0.2 184.58 0.3 184.03 0.3L184.03 0.3Q182.93 0.3 182.48-0.18 182.03-0.65 182.03-1.45L182.03-1.45Q182.03-2.05 182.16-4.23 182.28-6.4 182.46-9.55 182.63-12.7 182.88-16.28 183.13-19.85 183.41-23.33 183.68-26.8 183.93-29.6L183.93-29.6Q184.33-29.95 185.08-30.25 185.83-30.55 186.78-30.55L186.78-30.55Q187.93-30.55 188.73-30.1 189.53-29.65 189.98-28.7L189.98-28.7Q191.28-26.15 192.58-23.15 193.88-20.15 195.13-17.15 196.38-14.15 197.53-11.5L197.53-11.5 197.73-11.5Q199.93-16.8 202.11-21.7 204.28-26.6 205.78-30.05L205.78-30.05Q206.23-30.3 206.93-30.43 207.63-30.55 208.23-30.55L208.23-30.55Q209.38-30.55 210.06-30.18 210.73-29.8 210.93-28.95L210.93-28.95Q211.13-28.1 211.38-26.05 211.63-24 211.88-21.23 212.13-18.45 212.36-15.4 212.58-12.35 212.78-9.4 212.98-6.45 213.16-4.08 213.33-1.7 213.38-0.3L213.38-0.3Q212.93 0 212.43 0.15 211.93 0.3 211.28 0.3L211.28 0.3Q210.53 0.3 209.96-0.08 209.38-0.45 209.28-1.45L209.28-1.45Q208.98-6.3 208.71-11.03 208.43-15.75 208.23-19.7 208.03-23.65 207.88-26.15L207.88-26.15 207.68-26.15Q206.58-23.4 204.68-19.07 202.78-14.75 199.83-7.9ZM229.08-2.6L229.08-2.6Q231.18-2.6 232.55-3.03 233.93-3.45 234.53-3.85L234.53-3.85 234.53-11.1 228.33-10.45Q225.73-10.25 224.48-9.3 223.23-8.35 223.23-6.55L223.23-6.55Q223.23-4.7 224.7-3.65 226.18-2.6 229.08-2.6ZM229.03-23.75L229.03-23.75Q233.38-23.75 235.93-21.8 238.48-19.85 238.48-15.65L238.48-15.65 238.48-3.8Q238.48-2.7 238.05-2.13 237.63-1.55 236.78-1.05L236.78-1.05Q235.58-0.4 233.58 0.15 231.58 0.7 229.08 0.7L229.08 0.7Q224.38 0.7 221.8-1.15 219.23-3 219.23-6.5L219.23-6.5Q219.23-9.75 221.4-11.48 223.58-13.2 227.43-13.55L227.43-13.55 234.53-14.25 234.53-15.65Q234.53-18.15 233.03-19.3 231.53-20.45 228.98-20.45L228.98-20.45Q226.93-20.45 225.05-19.85 223.18-19.25 221.73-18.5L221.73-18.5Q221.33-18.85 221-19.33 220.68-19.8 220.68-20.3L220.68-20.3Q220.68-21.6 222.13-22.3L222.13-22.3Q223.48-23 225.25-23.38 227.03-23.75 229.03-23.75ZM245.83-6.05L245.83-13.2 249.83-13.2 249.83-6.3Q249.83-4.3 250.98-3.48 252.13-2.65 254.13-2.65L254.13-2.65Q254.98-2.65 256.03-2.95 257.08-3.25 257.78-3.65L257.78-3.65Q258.08-3.35 258.33-2.9 258.58-2.45 258.58-1.85L258.58-1.85Q258.58-0.75 257.28-0.05 255.98 0.65 253.68 0.65L253.68 0.65Q250.18 0.65 248-0.9 245.83-2.45 245.83-6.05L245.83-6.05ZM256.98-19.3L247.88-19.3 247.88-22.6 258.03-22.6Q258.18-22.4 258.33-21.95 258.48-21.5 258.48-21L258.48-21Q258.48-20.2 258.08-19.75 257.68-19.3 256.98-19.3L256.98-19.3ZM249.83-28.35L249.83-11.7 245.83-11.7 245.83-29.8Q246.08-29.9 246.6-30.03 247.13-30.15 247.73-30.15L247.73-30.15Q248.78-30.15 249.3-29.73 249.83-29.3 249.83-28.35L249.83-28.35ZM268.37-18.8L268.37-18.8 268.37-10.9 264.37-10.9 264.37-18.5Q264.37-19.65 264.8-20.33 265.22-21 266.22-21.65L266.22-21.65Q267.52-22.5 269.77-23.13 272.02-23.75 274.77-23.75L274.77-23.75Q278.77-23.75 278.77-21.75L278.77-21.75Q278.77-21.25 278.62-20.83 278.47-20.4 278.22-20.1L278.22-20.1Q277.72-20.2 276.92-20.3 276.12-20.4 275.32-20.4L275.32-20.4Q273.02-20.4 271.27-19.93 269.52-19.45 268.37-18.8ZM264.37-1.55L264.37-13.2 268.37-12.6 268.37-0.1Q268.12 0 267.62 0.13 267.12 0.25 266.52 0.25L266.52 0.25Q265.47 0.25 264.92-0.18 264.37-0.6 264.37-1.55L264.37-1.55ZM283.12-30.4L283.12-30.4Q283.12-31.45 283.87-32.18 284.62-32.9 285.72-32.9L285.72-32.9Q286.87-32.9 287.57-32.18 288.27-31.45 288.27-30.4L288.27-30.4Q288.27-29.35 287.57-28.63 286.87-27.9 285.72-27.9L285.72-27.9Q284.62-27.9 283.87-28.63 283.12-29.35 283.12-30.4ZM283.72-1.55L283.72-13.2 287.72-13.2 287.72-0.1Q287.47 0 286.97 0.13 286.47 0.25 285.87 0.25L285.87 0.25Q284.82 0.25 284.27-0.18 283.72-0.6 283.72-1.55L283.72-1.55ZM287.72-21.5L287.72-11.25 283.72-11.25 283.72-23Q283.97-23.1 284.5-23.23 285.02-23.35 285.62-23.35L285.62-23.35Q286.67-23.35 287.2-22.93 287.72-22.5 287.72-21.5L287.72-21.5ZM302.47-13.05L302.47-13.05 303.22-13.4Q305.27-16.05 307.07-18.35 308.87-20.65 310.77-23.4L310.77-23.4Q310.97-23.45 311.07-23.45 311.17-23.45 311.32-23.45L311.32-23.45Q312.37-23.45 312.97-22.98 313.57-22.5 313.57-21.7L313.57-21.7Q313.57-21.15 313.34-20.65 313.12-20.15 312.62-19.5L312.62-19.5Q310.92-17.4 309.14-15.25 307.37-13.1 305.67-11.05L305.67-11.05 304.37-9.95Q302.52-7.5 300.57-4.88 298.62-2.25 296.82 0.25L296.82 0.25Q296.62 0.25 296.47 0.25 296.32 0.25 296.12 0.25L296.12 0.25Q294.97 0.25 294.39-0.25 293.82-0.75 293.82-1.5L293.82-1.5Q293.82-1.9 293.99-2.35 294.17-2.8 294.82-3.6L294.82-3.6Q296.62-6 298.62-8.33 300.62-10.65 302.47-13.05ZM304.92-12.95L304.92-12.95 305.82-12.35Q307.87-9.65 309.94-7.03 312.02-4.4 314.07-1.75L314.07-1.75Q313.97-0.8 313.42-0.25 312.87 0.3 311.97 0.3L311.97 0.3Q311.17 0.3 310.62-0.13 310.07-0.55 309.37-1.45L309.37-1.45Q307.87-3.55 306.19-5.9 304.52-8.25 303.02-10.3L303.02-10.3 301.87-11.35Q299.67-14 297.77-16.4 295.87-18.8 293.87-21.35L293.87-21.35Q294.07-22.35 294.62-22.9 295.17-23.45 295.97-23.45L295.97-23.45Q296.82-23.45 297.32-23.03 297.82-22.6 298.32-21.9L298.32-21.9Q299.82-19.9 301.47-17.53 303.12-15.15 304.92-12.95Z" fill="#000000" data-fill-palette-color="primary"></path></g></svg></g><g><svg xmlns="http://www.w3.org/2000/svg" xmlns:xlink="http://www.w3.org/1999/xlink" version="1.1" x="411.7168" y="0" viewBox="11.017823632605118 11.459999999999999 37.963698158539415 37.07000000000001" style="enable-background:new 0 0 60 60;" xml:space="preserve" height="70.661296" width="72.36482635109813" class="icon-cg-0" data-fill-palette-color="accent" id="cg-0"><path d="M48.85 34.1L35.82 11.92c-0.17-0.29-0.47-0.46-0.81-0.46s-0.64 0.18-0.81 0.46L30 19.08l-4.21-7.15c-0.17-0.29-0.47-0.46-0.81-0.46s-0.64 0.18-0.81 0.46L11.15 34.1c-0.22 0.37-0.16 0.83 0.14 1.13l13.03 13.03c0.18 0.18 0.42 0.27 0.66 0.27s0.48-0.09 0.66-0.27L30 43.91l4.35 4.35c0.18 0.18 0.42 0.27 0.66 0.27s0.48-0.09 0.66-0.27l13.03-13.03C49.01 34.93 49.07 34.46 48.85 34.1zM24.99 46.28L13.13 34.42l11.86-20.18 3.93 6.68L21.17 34.1c-0.22 0.37-0.16 0.83 0.14 1.13l7.36 7.36L24.99 46.28zM30 22.77l6.85 11.65L30 41.27l-6.85-6.85L30 22.77zM35.01 46.28l-3.69-3.69 7.36-7.36c0.3-0.3 0.36-0.77 0.14-1.13l-7.74-13.17 3.93-6.68 11.86 20.18L35.01 46.28z" fill="#000000" data-fill-palette-color="accent"></path></svg></g></svg></g></svg></g><g transform="matrix(1,0,0,1,101.65714153373062,83.42610609720457)"><svg viewBox="0 0 280.7673432836369 17.670901431187147" height="17.670901431187147" width="280.7673432836369"><g transform="matrix(1,0,0,1,0,0)"><svg width="280.7673432836369" viewBox="4.85 -35.4 570.3636764705883 35.9" height="17.670901431187147" data-palette-color="#222222"><path d="M27.15 0L7.1 0Q6.15 0 5.5-0.65 4.85-1.3 4.85-2.25L4.85-2.25 4.85-32.6Q4.85-33.55 5.5-34.23 6.15-34.9 7.1-34.9L7.1-34.9 27.15-34.9Q28.05-34.9 28.68-34.27 29.3-33.65 29.3-32.75L29.3-32.75Q29.3-31.85 28.68-31.25 28.05-30.65 27.15-30.65L27.15-30.65 9.4-30.65 9.4-19.6 25.35-19.6Q26.25-19.6 26.88-18.98 27.5-18.35 27.5-17.45L27.5-17.45Q27.5-16.55 26.88-15.95 26.25-15.35 25.35-15.35L25.35-15.35 9.4-15.35 9.4-4.25 27.15-4.25Q28.05-4.25 28.68-3.63 29.3-3 29.3-2.1L29.3-2.1Q29.3-1.2 28.68-0.6 28.05 0 27.15 0L27.15 0ZM36.2 0.25L36.2 0.25Q35.35 0.25 34.72-0.38 34.1-1 34.1-1.85L34.1-1.85Q34.1-2.65 34.55-3.25L34.55-3.25 46.1-17.45 34.65-31.55Q34.2-32.15 34.2-32.95L34.2-32.95Q34.2-33.9 34.82-34.52 35.45-35.15 36.4-35.15L36.4-35.15Q37.6-35.15 38.25-34.25L38.25-34.25 48.8-20.85 59.35-34.35Q59.9-35.15 61-35.15L61-35.15Q61.9-35.15 62.55-34.52 63.2-33.9 63.2-33L63.2-33Q63.2-32.3 62.8-31.75L62.8-31.75 51.25-17.5 62.8-3.3Q63.25-2.8 63.25-2L63.25-2Q63.25-1.1 62.65-0.43 62.05 0.25 61 0.25L61 0.25Q59.9 0.25 59.2-0.7L59.2-0.7 48.5-14.15 37.95-0.65Q37.2 0.25 36.2 0.25ZM72.55 0.25L72.55 0.25Q71.6 0.25 70.95-0.4 70.3-1.05 70.3-2L70.3-2 70.3-32.6Q70.3-33.55 70.95-34.23 71.6-34.9 72.55-34.9L72.55-34.9 83.95-34.9Q87.75-34.9 90.32-33.93 92.9-32.95 94.42-31.33 95.95-29.7 96.62-27.75 97.3-25.8 97.3-23.8L97.3-23.8Q97.3-21.8 96.62-19.85 95.95-17.9 94.42-16.28 92.9-14.65 90.32-13.68 87.75-12.7 83.95-12.7L83.95-12.7 74.85-12.7 74.85-2Q74.85-1.05 74.17-0.4 73.5 0.25 72.55 0.25ZM74.85-30.6L74.85-17 83.5-17Q87.25-17 89.25-18.03 91.25-19.05 92-20.63 92.75-22.2 92.75-23.8L92.75-23.8Q92.75-25.45 92-27 91.25-28.55 89.25-29.58 87.25-30.6 83.5-30.6L83.5-30.6 74.85-30.6ZM124.79 0L107.04 0Q105.74 0 104.82-0.93 103.89-1.85 103.89-3.15L103.89-3.15 103.89-32.85Q103.89-33.8 104.54-34.48 105.19-35.15 106.14-35.15L106.14-35.15Q107.09-35.15 107.77-34.48 108.44-33.8 108.44-32.85L108.44-32.85 108.44-4.55 124.79-4.55Q125.74-4.55 126.42-3.88 127.09-3.2 127.09-2.25L127.09-2.25Q127.09-1.3 126.42-0.65 125.74 0 124.79 0L124.79 0ZM148.14 0.5L148.14 0.5Q142.79 0.5 138.89-1.8 134.99-4.1 132.84-8.15 130.69-12.2 130.59-17.45L130.59-17.45Q130.69-22.7 132.84-26.75 134.99-30.8 138.89-33.1 142.79-35.4 148.14-35.4L148.14-35.4Q153.49-35.4 157.39-33.1 161.29-30.8 163.44-26.75 165.59-22.7 165.69-17.45L165.69-17.45Q165.59-12.2 163.44-8.15 161.29-4.1 157.39-1.8 153.49 0.5 148.14 0.5ZM148.14-3.75L148.14-3.75Q152.29-3.75 155.19-5.58 158.09-7.4 159.62-10.5 161.14-13.6 161.14-17.45L161.14-17.45Q161.14-21.3 159.62-24.4 158.09-27.5 155.19-29.33 152.29-31.15 148.14-31.15L148.14-31.15Q143.99-31.15 141.09-29.33 138.19-27.5 136.67-24.4 135.14-21.3 135.14-17.45L135.14-17.45Q135.14-13.6 136.67-10.5 138.19-7.4 141.09-5.58 143.99-3.75 148.14-3.75ZM175.54 0.25L175.54 0.25Q174.59 0.25 173.94-0.4 173.29-1.05 173.29-2L173.29-2 173.29-32.6Q173.29-33.55 173.94-34.23 174.59-34.9 175.54-34.9L175.54-34.9 187.19-34.9Q191.94-34.9 194.94-33.55 197.94-32.2 199.36-29.93 200.79-27.65 200.79-24.75L200.79-24.75Q200.79-21.85 199.16-19.35 197.54-16.85 194.24-15.7L194.24-15.7Q196.34-15.15 197.59-13.73 198.84-12.3 199.46-10.5 200.09-8.7 200.29-7.03 200.49-5.35 200.49-4.3L200.49-4.3 200.49-2Q200.49-1.05 199.84-0.4 199.19 0.25 198.24 0.25L198.24 0.25Q197.19 0.25 196.56-0.38 195.94-1 195.94-2L195.94-2 195.94-3.5Q195.94-4.75 195.76-6.45 195.59-8.15 194.89-9.8 194.19-11.45 192.61-12.53 191.04-13.6 188.19-13.6L188.19-13.6 177.84-13.6 177.84-2Q177.84-1.05 177.16-0.4 176.49 0.25 175.54 0.25ZM177.84-30.6L177.84-17.9 186.89-17.9Q191.09-17.9 193.66-19.55 196.24-21.2 196.24-24.4L196.24-24.4Q196.24-26.25 195.39-27.65 194.54-29.05 192.44-29.83 190.34-30.6 186.64-30.6L186.64-30.6 177.84-30.6ZM211.14 0.25L211.14 0.25Q210.19 0.25 209.54-0.4 208.89-1.05 208.89-2L208.89-2 208.89-32.85Q208.89-33.8 209.54-34.48 210.19-35.15 211.14-35.15L211.14-35.15Q212.09-35.15 212.76-34.48 213.44-33.8 213.44-32.85L213.44-32.85 213.44-2Q213.44-1.05 212.76-0.4 212.09 0.25 211.14 0.25ZM225.38 0.25L225.38 0.25Q224.43 0.25 223.78-0.4 223.13-1.05 223.13-2L223.13-2 223.13-31.85Q223.13-33.2 224.08-34.18 225.03-35.15 226.38-35.15L226.38-35.15 227.03-35.15Q227.88-35.15 228.58-34.75 229.28-34.35 229.78-33.65L229.78-33.65 249.03-5.85 249.03-32.85Q249.03-33.8 249.68-34.48 250.33-35.15 251.28-35.15L251.28-35.15Q252.23-35.15 252.91-34.48 253.58-33.8 253.58-32.85L253.58-32.85 253.58-3Q253.58-1.65 252.61-0.7 251.63 0.25 250.28 0.25L250.28 0.25 249.68 0.25Q248.88 0.25 248.18-0.13 247.48-0.5 247.03-1.1L247.03-1.1 227.68-29.05 227.68-2Q227.68-1.05 227.01-0.4 226.33 0.25 225.38 0.25ZM278.73 0.5L278.73 0.5Q273.48 0.5 269.53-1.8 265.58-4.1 263.38-8.13 261.18-12.15 261.18-17.4L261.18-17.4Q261.18-21.45 262.53-24.78 263.88-28.1 266.25-30.48 268.63-32.85 271.78-34.13 274.93-35.4 278.58-35.4L278.58-35.4Q282.83-35.4 285.75-34.35 288.68-33.3 291.03-31.8L291.03-31.8Q291.38-31.6 291.7-31.15 292.03-30.7 292.03-30L292.03-30Q292.03-29.2 291.48-28.58 290.93-27.95 289.93-27.95L289.93-27.95Q289.38-27.95 288.88-28.2L288.88-28.2Q286.68-29.5 284.33-30.25 281.98-31 279.08-31L279.08-31Q275.33-31 272.31-29.43 269.28-27.85 267.5-24.83 265.73-21.8 265.73-17.4L265.73-17.4Q265.73-13.55 267.33-10.48 268.93-7.4 271.98-5.6 275.03-3.8 279.33-3.8L279.33-3.8Q281.98-3.8 284.18-4.42 286.38-5.05 288.08-6L288.08-6 288.08-15.05 279.83-15.05Q278.98-15.05 278.38-15.65 277.78-16.25 277.78-17.1L277.78-17.1Q277.78-17.95 278.38-18.55 278.98-19.15 279.83-19.15L279.83-19.15 289.68-19.15Q290.68-19.15 291.38-18.45 292.08-17.75 292.08-16.75L292.08-16.75 292.08-5.4Q292.08-4.35 291.56-3.53 291.03-2.7 290.18-2.3L290.18-2.3Q287.73-1.05 284.86-0.28 281.98 0.5 278.73 0.5ZM316.38 0.25L316.38 0.25Q315.43 0.25 314.78-0.4 314.13-1.05 314.13-2L314.13-2 314.13-31.85Q314.13-33.2 315.08-34.18 316.03-35.15 317.38-35.15L317.38-35.15 319.03-35.15Q320.03-35.15 320.88-34.55 321.73-33.95 322.08-33.05L322.08-33.05 333.43-4.75 344.78-33.05Q345.18-33.95 346-34.55 346.83-35.15 347.83-35.15L347.83-35.15 349.48-35.15Q350.83-35.15 351.78-34.18 352.73-33.2 352.73-31.85L352.73-31.85 352.73-2Q352.73-1.05 352.08-0.4 351.43 0.25 350.48 0.25L350.48 0.25Q349.53 0.25 348.85-0.4 348.18-1.05 348.18-2L348.18-2 348.18-30.4 336.63-1.85Q336.23-0.9 335.38-0.33 334.53 0.25 333.43 0.25L333.43 0.25Q332.33 0.25 331.48-0.33 330.63-0.9 330.23-1.85L330.23-1.85 318.68-30.4 318.68-2Q318.68-1.05 318-0.4 317.33 0.25 316.38 0.25ZM377.87 0.5L377.87 0.5Q372.52 0.5 368.62-1.8 364.72-4.1 362.57-8.15 360.42-12.2 360.32-17.45L360.32-17.45Q360.42-22.7 362.57-26.75 364.72-30.8 368.62-33.1 372.52-35.4 377.87-35.4L377.87-35.4Q383.22-35.4 387.12-33.1 391.02-30.8 393.17-26.75 395.32-22.7 395.42-17.45L395.42-17.45Q395.32-12.2 393.17-8.15 391.02-4.1 387.12-1.8 383.22 0.5 377.87 0.5ZM377.87-3.75L377.87-3.75Q382.02-3.75 384.92-5.58 387.82-7.4 389.35-10.5 390.87-13.6 390.87-17.45L390.87-17.45Q390.87-21.3 389.35-24.4 387.82-27.5 384.92-29.33 382.02-31.15 377.87-31.15L377.87-31.15Q373.72-31.15 370.82-29.33 367.92-27.5 366.4-24.4 364.87-21.3 364.87-17.45L364.87-17.45Q364.87-13.6 366.4-10.5 367.92-7.4 370.82-5.58 373.72-3.75 377.87-3.75ZM405.27 0.25L405.27 0.25Q404.32 0.25 403.67-0.4 403.02-1.05 403.02-2L403.02-2 403.02-32.6Q403.02-33.55 403.67-34.23 404.32-34.9 405.27-34.9L405.27-34.9 416.92-34.9Q421.67-34.9 424.67-33.55 427.67-32.2 429.1-29.93 430.52-27.65 430.52-24.75L430.52-24.75Q430.52-21.85 428.9-19.35 427.27-16.85 423.97-15.7L423.97-15.7Q426.07-15.15 427.32-13.73 428.57-12.3 429.2-10.5 429.82-8.7 430.02-7.03 430.22-5.35 430.22-4.3L430.22-4.3 430.22-2Q430.22-1.05 429.57-0.4 428.92 0.25 427.97 0.25L427.97 0.25Q426.92 0.25 426.3-0.38 425.67-1 425.67-2L425.67-2 425.67-3.5Q425.67-4.75 425.5-6.45 425.32-8.15 424.62-9.8 423.92-11.45 422.35-12.53 420.77-13.6 417.92-13.6L417.92-13.6 407.57-13.6 407.57-2Q407.57-1.05 406.9-0.4 406.22 0.25 405.27 0.25ZM407.57-30.6L407.57-17.9 416.62-17.9Q420.82-17.9 423.4-19.55 425.97-21.2 425.97-24.4L425.97-24.4Q425.97-26.25 425.12-27.65 424.27-29.05 422.17-29.83 420.07-30.6 416.37-30.6L416.37-30.6 407.57-30.6ZM438.52 0.25L438.52 0.25Q437.47 0.25 436.87-0.4 436.27-1.05 436.27-2L436.27-2Q436.27-2.4 436.52-3L436.52-3 449.27-33.1Q449.62-33.9 450.34-34.52 451.07-35.15 452.17-35.15L452.17-35.15 452.67-35.15Q453.82-35.15 454.52-34.52 455.22-33.9 455.57-33.1L455.57-33.1 468.32-3Q468.57-2.4 468.57-2L468.57-2Q468.57-1.05 467.97-0.4 467.37 0.25 466.32 0.25L466.32 0.25Q464.77 0.25 464.17-1.15L464.17-1.15 460.92-8.95 443.92-8.95 440.67-1.15Q440.07 0.25 438.52 0.25ZM452.42-29.35L445.67-13.1 459.17-13.1 452.42-29.35ZM496.82 0L479.07 0Q477.77 0 476.84-0.93 475.92-1.85 475.92-3.15L475.92-3.15 475.92-32.85Q475.92-33.8 476.57-34.48 477.22-35.15 478.17-35.15L478.17-35.15Q479.12-35.15 479.79-34.48 480.47-33.8 480.47-32.85L480.47-32.85 480.47-4.55 496.82-4.55Q497.77-4.55 498.44-3.88 499.12-3.2 499.12-2.25L499.12-2.25Q499.12-1.3 498.44-0.65 497.77 0 496.82 0L496.82 0ZM506.96 0.25L506.96 0.25Q506.01 0.25 505.36-0.4 504.71-1.05 504.71-2L504.71-2 504.71-32.85Q504.71-33.8 505.36-34.48 506.01-35.15 506.96-35.15L506.96-35.15Q507.91-35.15 508.59-34.48 509.26-33.8 509.26-32.85L509.26-32.85 509.26-2Q509.26-1.05 508.59-0.4 507.91 0.25 506.96 0.25ZM529.31 0.25L529.31 0.25Q528.36 0.25 527.71-0.4 527.06-1.05 527.06-2L527.06-2 527.06-30.65 516.86-30.65Q515.96-30.65 515.36-31.25 514.76-31.85 514.76-32.75L514.76-32.75Q514.76-33.65 515.36-34.27 515.96-34.9 516.86-34.9L516.86-34.9 541.76-34.9Q542.66-34.9 543.29-34.27 543.91-33.65 543.91-32.75L543.91-32.75Q543.91-31.85 543.29-31.25 542.66-30.65 541.76-30.65L541.76-30.65 531.61-30.65 531.61-2Q531.61-1.05 530.94-0.4 530.26 0.25 529.31 0.25ZM560.56 0.25L560.56 0.25Q559.61 0.25 558.93-0.4 558.26-1.05 558.26-2L558.26-2 558.26-14.75 546.31-31.5Q545.91-32.15 545.91-32.85L545.91-32.85Q545.91-33.8 546.53-34.48 547.16-35.15 548.11-35.15L548.11-35.15Q549.36-35.15 550.11-34L550.11-34 560.56-18.8 571.01-34Q571.76-35.15 573.01-35.15L573.01-35.15Q574.01-35.15 574.63-34.48 575.26-33.8 575.21-32.85L575.21-32.85Q575.21-32.15 574.81-31.5L574.81-31.5 562.81-14.75 562.81-2Q562.81-1.05 562.16-0.4 561.51 0.25 560.56 0.25Z" opacity="1" transform="matrix(1,0,0,1,0,0)" fill="#000000" class="slogan-text-1" data-fill-palette-color="secondary" id="text-1"></path></svg></g></svg></g></svg></g></svg></g><g></g></svg></g><defs></defs></svg><rect width="395.52" height="82.60154122980128" fill="none" stroke="none" visibility="hidden"></rect></g></svg></g></svg>